<mxfile host="app.diagrams.net" agent="Mozilla/5.0 (Windows NT 10.0; Win64; x64) AppleWebKit/537.36 (KHTML, like Gecko) Chrome/131.0.0.0 Safari/537.36" version="25.0.3">
  <diagram name="Page-1" id="9f46799a-70d6-7492-0946-bef42562c5a5">
    <mxGraphModel dx="794" dy="446" grid="1" gridSize="10" guides="1" tooltips="1" connect="1" arrows="1" fold="1" page="1" pageScale="1" pageWidth="1100" pageHeight="850" background="none" math="0" shadow="0">
      <root>
        <mxCell id="0" />
        <mxCell id="1" parent="0" />
        <mxCell id="hSrrHkZvwBZFsGFu-_xg-4" value="pieces" style="swimlane;fontStyle=1;align=center;verticalAlign=top;childLayout=stackLayout;horizontal=1;startSize=26;horizontalStack=0;resizeParent=1;resizeParentMax=0;resizeLast=0;collapsible=1;marginBottom=0;whiteSpace=wrap;html=1;" parent="1" vertex="1">
          <mxGeometry x="320" y="70" width="160" height="138" as="geometry" />
        </mxCell>
        <mxCell id="hSrrHkZvwBZFsGFu-_xg-5" value="- std::string _startPoint&lt;div&gt;&lt;br&gt;&lt;/div&gt;" style="text;strokeColor=none;fillColor=none;align=left;verticalAlign=top;spacingLeft=4;spacingRight=4;overflow=hidden;rotatable=0;points=[[0,0.5],[1,0.5]];portConstraint=eastwest;whiteSpace=wrap;html=1;" parent="hSrrHkZvwBZFsGFu-_xg-4" vertex="1">
          <mxGeometry y="26" width="160" height="26" as="geometry" />
        </mxCell>
        <mxCell id="hSrrHkZvwBZFsGFu-_xg-17" value="- std::string _curPlace" style="text;strokeColor=none;fillColor=none;align=left;verticalAlign=top;spacingLeft=4;spacingRight=4;overflow=hidden;rotatable=0;points=[[0,0.5],[1,0.5]];portConstraint=eastwest;whiteSpace=wrap;html=1;" parent="hSrrHkZvwBZFsGFu-_xg-4" vertex="1">
          <mxGeometry y="52" width="160" height="26" as="geometry" />
        </mxCell>
        <mxCell id="hSrrHkZvwBZFsGFu-_xg-16" value="- char _color" style="text;strokeColor=none;fillColor=none;align=left;verticalAlign=top;spacingLeft=4;spacingRight=4;overflow=hidden;rotatable=0;points=[[0,0.5],[1,0.5]];portConstraint=eastwest;whiteSpace=wrap;html=1;" parent="hSrrHkZvwBZFsGFu-_xg-4" vertex="1">
          <mxGeometry y="78" width="160" height="26" as="geometry" />
        </mxCell>
        <mxCell id="hSrrHkZvwBZFsGFu-_xg-6" value="" style="line;strokeWidth=1;fillColor=none;align=left;verticalAlign=middle;spacingTop=-1;spacingLeft=3;spacingRight=3;rotatable=0;labelPosition=right;points=[];portConstraint=eastwest;strokeColor=inherit;" parent="hSrrHkZvwBZFsGFu-_xg-4" vertex="1">
          <mxGeometry y="104" width="160" height="8" as="geometry" />
        </mxCell>
        <mxCell id="hSrrHkZvwBZFsGFu-_xg-7" value="+ vir mov = 0" style="text;strokeColor=none;fillColor=none;align=left;verticalAlign=top;spacingLeft=4;spacingRight=4;overflow=hidden;rotatable=0;points=[[0,0.5],[1,0.5]];portConstraint=eastwest;whiteSpace=wrap;html=1;" parent="hSrrHkZvwBZFsGFu-_xg-4" vertex="1">
          <mxGeometry y="112" width="160" height="26" as="geometry" />
        </mxCell>
        <mxCell id="hSrrHkZvwBZFsGFu-_xg-10" value="rook" style="swimlane;fontStyle=0;childLayout=stackLayout;horizontal=1;startSize=20;fillColor=none;horizontalStack=0;resizeParent=1;resizeParentMax=0;resizeLast=0;collapsible=1;marginBottom=0;whiteSpace=wrap;html=1;" parent="1" vertex="1">
          <mxGeometry x="510" y="320" width="150" height="84" as="geometry" />
        </mxCell>
        <mxCell id="hSrrHkZvwBZFsGFu-_xg-12" value="+ vir mov(string dest)" style="text;strokeColor=none;fillColor=none;align=left;verticalAlign=top;spacingLeft=4;spacingRight=4;overflow=hidden;rotatable=0;points=[[0,0.5],[1,0.5]];portConstraint=eastwest;whiteSpace=wrap;html=1;" parent="hSrrHkZvwBZFsGFu-_xg-10" vertex="1">
          <mxGeometry y="20" width="150" height="26" as="geometry" />
        </mxCell>
        <mxCell id="hSrrHkZvwBZFsGFu-_xg-13" value="+ static checkMove(dest, curPlace, color)&amp;nbsp;" style="text;strokeColor=none;fillColor=none;align=left;verticalAlign=top;spacingLeft=4;spacingRight=4;overflow=hidden;rotatable=0;points=[[0,0.5],[1,0.5]];portConstraint=eastwest;whiteSpace=wrap;html=1;" parent="hSrrHkZvwBZFsGFu-_xg-10" vertex="1">
          <mxGeometry y="46" width="150" height="38" as="geometry" />
        </mxCell>
        <mxCell id="hSrrHkZvwBZFsGFu-_xg-19" value="king" style="swimlane;fontStyle=0;childLayout=stackLayout;horizontal=1;startSize=26;fillColor=none;horizontalStack=0;resizeParent=1;resizeParentMax=0;resizeLast=0;collapsible=1;marginBottom=0;whiteSpace=wrap;html=1;" parent="1" vertex="1">
          <mxGeometry x="90" y="320" width="150" height="168" as="geometry" />
        </mxCell>
        <mxCell id="hSrrHkZvwBZFsGFu-_xg-20" value="- int _isCheck&amp;nbsp;" style="text;strokeColor=none;fillColor=none;align=left;verticalAlign=top;spacingLeft=4;spacingRight=4;overflow=hidden;rotatable=0;points=[[0,0.5],[1,0.5]];portConstraint=eastwest;whiteSpace=wrap;html=1;" parent="hSrrHkZvwBZFsGFu-_xg-19" vertex="1">
          <mxGeometry y="26" width="150" height="32" as="geometry" />
        </mxCell>
        <mxCell id="hSrrHkZvwBZFsGFu-_xg-21" value="+ vir move(string dest)" style="text;strokeColor=none;fillColor=none;align=left;verticalAlign=top;spacingLeft=4;spacingRight=4;overflow=hidden;rotatable=0;points=[[0,0.5],[1,0.5]];portConstraint=eastwest;whiteSpace=wrap;html=1;" parent="hSrrHkZvwBZFsGFu-_xg-19" vertex="1">
          <mxGeometry y="58" width="150" height="24" as="geometry" />
        </mxCell>
        <mxCell id="hSrrHkZvwBZFsGFu-_xg-22" value="+ static checkMove(dest, color)" style="text;strokeColor=none;fillColor=none;align=left;verticalAlign=top;spacingLeft=4;spacingRight=4;overflow=hidden;rotatable=0;points=[[0,0.5],[1,0.5]];portConstraint=eastwest;whiteSpace=wrap;html=1;" parent="hSrrHkZvwBZFsGFu-_xg-19" vertex="1">
          <mxGeometry y="82" width="150" height="38" as="geometry" />
        </mxCell>
        <mxCell id="ucu3FSzwirCISs-9bSWt-36" value="+ checkIfCheck()" style="text;strokeColor=none;fillColor=none;align=left;verticalAlign=top;spacingLeft=4;spacingRight=4;overflow=hidden;rotatable=0;points=[[0,0.5],[1,0.5]];portConstraint=eastwest;whiteSpace=wrap;html=1;" parent="hSrrHkZvwBZFsGFu-_xg-19" vertex="1">
          <mxGeometry y="120" width="150" height="24" as="geometry" />
        </mxCell>
        <mxCell id="ucu3FSzwirCISs-9bSWt-37" value="+ checkIfCheckmate()" style="text;strokeColor=none;fillColor=none;align=left;verticalAlign=top;spacingLeft=4;spacingRight=4;overflow=hidden;rotatable=0;points=[[0,0.5],[1,0.5]];portConstraint=eastwest;whiteSpace=wrap;html=1;" parent="hSrrHkZvwBZFsGFu-_xg-19" vertex="1">
          <mxGeometry y="144" width="150" height="24" as="geometry" />
        </mxCell>
        <mxCell id="hSrrHkZvwBZFsGFu-_xg-24" value="bishop" style="swimlane;fontStyle=0;childLayout=stackLayout;horizontal=1;startSize=26;fillColor=none;horizontalStack=0;resizeParent=1;resizeParentMax=0;resizeLast=0;collapsible=1;marginBottom=0;whiteSpace=wrap;html=1;fontSize=14;strokeWidth=2;perimeterSpacing=1;" parent="1" vertex="1">
          <mxGeometry x="320" y="320" width="150" height="140" as="geometry" />
        </mxCell>
        <mxCell id="hSrrHkZvwBZFsGFu-_xg-25" value="- string _startColor" style="text;strokeColor=none;fillColor=none;align=left;verticalAlign=top;spacingLeft=4;spacingRight=4;overflow=hidden;rotatable=0;points=[[0,0.5],[1,0.5]];portConstraint=eastwest;whiteSpace=wrap;html=1;" parent="hSrrHkZvwBZFsGFu-_xg-24" vertex="1">
          <mxGeometry y="26" width="150" height="32" as="geometry" />
        </mxCell>
        <mxCell id="hSrrHkZvwBZFsGFu-_xg-26" value="+ vir mov (string dest)" style="text;strokeColor=none;fillColor=none;align=left;verticalAlign=top;spacingLeft=4;spacingRight=4;overflow=hidden;rotatable=0;points=[[0,0.5],[1,0.5]];portConstraint=eastwest;whiteSpace=wrap;html=1;" parent="hSrrHkZvwBZFsGFu-_xg-24" vertex="1">
          <mxGeometry y="58" width="150" height="26" as="geometry" />
        </mxCell>
        <mxCell id="hSrrHkZvwBZFsGFu-_xg-27" value="&lt;font style=&quot;font-size: 12px;&quot;&gt;+ static checkMove(dest, curPlace, color, startColor)&lt;/font&gt;" style="text;strokeColor=none;fillColor=none;align=left;verticalAlign=top;spacingLeft=4;spacingRight=4;overflow=hidden;rotatable=0;points=[[0,0.5],[1,0.5]];portConstraint=eastwest;whiteSpace=wrap;html=1;strokeWidth=0;" parent="hSrrHkZvwBZFsGFu-_xg-24" vertex="1">
          <mxGeometry y="84" width="150" height="56" as="geometry" />
        </mxCell>
        <mxCell id="hSrrHkZvwBZFsGFu-_xg-30" value="queen" style="swimlane;fontStyle=0;childLayout=stackLayout;horizontal=1;startSize=26;fillColor=none;horizontalStack=0;resizeParent=1;resizeParentMax=0;resizeLast=0;collapsible=1;marginBottom=0;whiteSpace=wrap;html=1;" parent="1" vertex="1">
          <mxGeometry x="90" y="500" width="150" height="90" as="geometry" />
        </mxCell>
        <mxCell id="hSrrHkZvwBZFsGFu-_xg-32" value="+ static checkMove(dest, color, currentPlace)" style="text;strokeColor=none;fillColor=none;align=left;verticalAlign=top;spacingLeft=4;spacingRight=4;overflow=hidden;rotatable=0;points=[[0,0.5],[1,0.5]];portConstraint=eastwest;whiteSpace=wrap;html=1;" parent="hSrrHkZvwBZFsGFu-_xg-30" vertex="1">
          <mxGeometry y="26" width="150" height="38" as="geometry" />
        </mxCell>
        <mxCell id="hSrrHkZvwBZFsGFu-_xg-33" value="+ vir move(dest)" style="text;strokeColor=none;fillColor=none;align=left;verticalAlign=top;spacingLeft=4;spacingRight=4;overflow=hidden;rotatable=0;points=[[0,0.5],[1,0.5]];portConstraint=eastwest;whiteSpace=wrap;html=1;" parent="hSrrHkZvwBZFsGFu-_xg-30" vertex="1">
          <mxGeometry y="64" width="150" height="26" as="geometry" />
        </mxCell>
        <mxCell id="ucu3FSzwirCISs-9bSWt-1" value="board" style="swimlane;fontStyle=0;childLayout=stackLayout;horizontal=1;startSize=26;fillColor=none;horizontalStack=0;resizeParent=1;resizeParentMax=0;resizeLast=0;collapsible=1;marginBottom=0;whiteSpace=wrap;html=1;" parent="1" vertex="1">
          <mxGeometry x="40" y="30" width="160" height="178" as="geometry" />
        </mxCell>
        <mxCell id="ucu3FSzwirCISs-9bSWt-2" value="- pieces _board[]" style="text;strokeColor=none;fillColor=none;align=left;verticalAlign=top;spacingLeft=4;spacingRight=4;overflow=hidden;rotatable=0;points=[[0,0.5],[1,0.5]];portConstraint=eastwest;whiteSpace=wrap;html=1;" parent="ucu3FSzwirCISs-9bSWt-1" vertex="1">
          <mxGeometry y="26" width="160" height="26" as="geometry" />
        </mxCell>
        <mxCell id="ucu3FSzwirCISs-9bSWt-3" value="+ movePiece()" style="text;strokeColor=none;fillColor=none;align=left;verticalAlign=top;spacingLeft=4;spacingRight=4;overflow=hidden;rotatable=0;points=[[0,0.5],[1,0.5]];portConstraint=eastwest;whiteSpace=wrap;html=1;" parent="ucu3FSzwirCISs-9bSWt-1" vertex="1">
          <mxGeometry y="52" width="160" height="26" as="geometry" />
        </mxCell>
        <mxCell id="ucu3FSzwirCISs-9bSWt-11" value="+ int convertStrToNum(dest)" style="text;strokeColor=none;fillColor=none;align=left;verticalAlign=top;spacingLeft=4;spacingRight=4;overflow=hidden;rotatable=0;points=[[0,0.5],[1,0.5]];portConstraint=eastwest;whiteSpace=wrap;html=1;" parent="ucu3FSzwirCISs-9bSWt-1" vertex="1">
          <mxGeometry y="78" width="160" height="22" as="geometry" />
        </mxCell>
        <mxCell id="iP6nNwqvdkIbZQZKLoYQ-1" value="+ checkWin()" style="text;strokeColor=none;fillColor=none;align=left;verticalAlign=top;spacingLeft=4;spacingRight=4;overflow=hidden;rotatable=0;points=[[0,0.5],[1,0.5]];portConstraint=eastwest;whiteSpace=wrap;html=1;" parent="ucu3FSzwirCISs-9bSWt-1" vertex="1">
          <mxGeometry y="100" width="160" height="26" as="geometry" />
        </mxCell>
        <mxCell id="iP6nNwqvdkIbZQZKLoYQ-2" value="- int _whiteKingPlace[]" style="text;strokeColor=none;fillColor=none;align=left;verticalAlign=top;spacingLeft=4;spacingRight=4;overflow=hidden;rotatable=0;points=[[0,0.5],[1,0.5]];portConstraint=eastwest;whiteSpace=wrap;html=1;" parent="ucu3FSzwirCISs-9bSWt-1" vertex="1">
          <mxGeometry y="126" width="160" height="26" as="geometry" />
        </mxCell>
        <mxCell id="iP6nNwqvdkIbZQZKLoYQ-3" value="- int _blackKingPlace[]" style="text;strokeColor=none;fillColor=none;align=left;verticalAlign=top;spacingLeft=4;spacingRight=4;overflow=hidden;rotatable=0;points=[[0,0.5],[1,0.5]];portConstraint=eastwest;whiteSpace=wrap;html=1;" parent="ucu3FSzwirCISs-9bSWt-1" vertex="1">
          <mxGeometry y="152" width="160" height="26" as="geometry" />
        </mxCell>
        <mxCell id="ucu3FSzwirCISs-9bSWt-12" value="knight" style="swimlane;fontStyle=0;childLayout=stackLayout;horizontal=1;startSize=26;fillColor=none;horizontalStack=0;resizeParent=1;resizeParentMax=0;resizeLast=0;collapsible=1;marginBottom=0;whiteSpace=wrap;html=1;" parent="1" vertex="1">
          <mxGeometry x="510" y="430" width="150" height="70" as="geometry" />
        </mxCell>
        <mxCell id="ucu3FSzwirCISs-9bSWt-13" value="+ static checkMove(dest, currentPoint, color)&amp;nbsp;" style="text;strokeColor=none;fillColor=none;align=left;verticalAlign=top;spacingLeft=4;spacingRight=4;overflow=hidden;rotatable=0;points=[[0,0.5],[1,0.5]];portConstraint=eastwest;whiteSpace=wrap;html=1;" parent="ucu3FSzwirCISs-9bSWt-12" vertex="1">
          <mxGeometry y="26" width="150" height="44" as="geometry" />
        </mxCell>
        <mxCell id="ucu3FSzwirCISs-9bSWt-21" value="pawn" style="swimlane;fontStyle=0;childLayout=stackLayout;horizontal=1;startSize=26;fillColor=none;horizontalStack=0;resizeParent=1;resizeParentMax=0;resizeLast=0;collapsible=1;marginBottom=0;whiteSpace=wrap;html=1;" parent="1" vertex="1">
          <mxGeometry x="320" y="500" width="150" height="110" as="geometry" />
        </mxCell>
        <mxCell id="ucu3FSzwirCISs-9bSWt-23" value="- bool _isFirstMove" style="text;strokeColor=none;fillColor=none;align=left;verticalAlign=top;spacingLeft=4;spacingRight=4;overflow=hidden;rotatable=0;points=[[0,0.5],[1,0.5]];portConstraint=eastwest;whiteSpace=wrap;html=1;" parent="ucu3FSzwirCISs-9bSWt-21" vertex="1">
          <mxGeometry y="26" width="150" height="30" as="geometry" />
        </mxCell>
        <mxCell id="ucu3FSzwirCISs-9bSWt-22" value="+ static checkMove(dest, currentPoint, color, isFirstMove)&amp;nbsp;" style="text;strokeColor=none;fillColor=none;align=left;verticalAlign=top;spacingLeft=4;spacingRight=4;overflow=hidden;rotatable=0;points=[[0,0.5],[1,0.5]];portConstraint=eastwest;whiteSpace=wrap;html=1;" parent="ucu3FSzwirCISs-9bSWt-21" vertex="1">
          <mxGeometry y="56" width="150" height="54" as="geometry" />
        </mxCell>
        <mxCell id="ucu3FSzwirCISs-9bSWt-27" value="" style="endArrow=classic;html=1;rounded=0;entryX=0.467;entryY=1;entryDx=0;entryDy=0;entryPerimeter=0;exitX=0.5;exitY=0;exitDx=0;exitDy=0;" parent="1" source="hSrrHkZvwBZFsGFu-_xg-24" target="hSrrHkZvwBZFsGFu-_xg-7" edge="1">
          <mxGeometry width="50" height="50" relative="1" as="geometry">
            <mxPoint x="480" y="360" as="sourcePoint" />
            <mxPoint x="530" y="310" as="targetPoint" />
          </mxGeometry>
        </mxCell>
        <mxCell id="ucu3FSzwirCISs-9bSWt-29" value="" style="endArrow=none;html=1;rounded=0;entryX=0.458;entryY=-0.044;entryDx=0;entryDy=0;entryPerimeter=0;" parent="1" target="hSrrHkZvwBZFsGFu-_xg-10" edge="1">
          <mxGeometry width="50" height="50" relative="1" as="geometry">
            <mxPoint x="390" y="270" as="sourcePoint" />
            <mxPoint x="590" y="260" as="targetPoint" />
            <Array as="points">
              <mxPoint x="579" y="270" />
            </Array>
          </mxGeometry>
        </mxCell>
        <mxCell id="ucu3FSzwirCISs-9bSWt-31" value="" style="endArrow=none;html=1;rounded=0;exitX=0.5;exitY=0;exitDx=0;exitDy=0;" parent="1" source="hSrrHkZvwBZFsGFu-_xg-19" edge="1">
          <mxGeometry width="50" height="50" relative="1" as="geometry">
            <mxPoint x="159" y="310" as="sourcePoint" />
            <mxPoint x="400" y="270" as="targetPoint" />
            <Array as="points">
              <mxPoint x="165" y="270" />
            </Array>
          </mxGeometry>
        </mxCell>
        <mxCell id="ucu3FSzwirCISs-9bSWt-32" value="" style="endArrow=none;html=1;rounded=0;exitX=0.5;exitY=0;exitDx=0;exitDy=0;" parent="1" source="hSrrHkZvwBZFsGFu-_xg-30" edge="1">
          <mxGeometry width="50" height="50" relative="1" as="geometry">
            <mxPoint x="380" y="470" as="sourcePoint" />
            <mxPoint x="280" y="270" as="targetPoint" />
            <Array as="points">
              <mxPoint x="280" y="500" />
            </Array>
          </mxGeometry>
        </mxCell>
        <mxCell id="ucu3FSzwirCISs-9bSWt-33" value="" style="endArrow=none;html=1;rounded=0;exitX=0.5;exitY=0;exitDx=0;exitDy=0;" parent="1" source="ucu3FSzwirCISs-9bSWt-21" edge="1">
          <mxGeometry width="50" height="50" relative="1" as="geometry">
            <mxPoint x="380" y="470" as="sourcePoint" />
            <mxPoint x="280" y="500" as="targetPoint" />
          </mxGeometry>
        </mxCell>
        <mxCell id="ucu3FSzwirCISs-9bSWt-34" value="" style="endArrow=none;html=1;rounded=0;exitX=0.5;exitY=0;exitDx=0;exitDy=0;" parent="1" source="ucu3FSzwirCISs-9bSWt-12" edge="1">
          <mxGeometry width="50" height="50" relative="1" as="geometry">
            <mxPoint x="380" y="470" as="sourcePoint" />
            <mxPoint x="490" y="270" as="targetPoint" />
            <Array as="points">
              <mxPoint x="490" y="430" />
            </Array>
          </mxGeometry>
        </mxCell>
        <mxCell id="DnQTdKiLRrRCe9edekWU-1" value="" style="endArrow=diamondThin;endFill=1;endSize=24;html=1;rounded=0;exitX=0.017;exitY=-0.077;exitDx=0;exitDy=0;exitPerimeter=0;entryX=1;entryY=0.5;entryDx=0;entryDy=0;" edge="1" parent="1" source="hSrrHkZvwBZFsGFu-_xg-16" target="ucu3FSzwirCISs-9bSWt-11">
          <mxGeometry width="160" relative="1" as="geometry">
            <mxPoint x="330" y="230" as="sourcePoint" />
            <mxPoint x="490" y="230" as="targetPoint" />
          </mxGeometry>
        </mxCell>
      </root>
    </mxGraphModel>
  </diagram>
</mxfile>
